<?xml version="1.0" encoding="utf-8"?>
<!-- Generator: Adobe Illustrator 18.1.1, SVG Export Plug-In . SVG Version: 6.00 Build 0)  -->
<svg version="1.1" id="Layer_1" xmlns="http://www.w3.org/2000/svg" xmlns:xlink="http://www.w3.org/1999/xlink" x="0px" y="0px"
	 viewBox="-150 198.3 200 200" enable-background="new -150 198.3 200 200" xml:space="preserve">
<g>
	<g>
		<defs>
			<rect id="SVGID_1_" x="-277.7" y="230.5" width="107.3" height="140.7"/>
		</defs>
		<clipPath id="SVGID_2_">
			<use xlink:href="#SVGID_1_"  overflow="visible"/>
		</clipPath>
		<path clip-path="url(#SVGID_2_)" fill="#FFFFFF" d="M-199.6,351.4c0.3-1,0.8-1.8,1.5-2.4v-5h-70.3l-7.4,7.4H-199.6z"/>
		<polygon clip-path="url(#SVGID_2_)" fill="#FFFFFF" points="-198.1,324.3 -268.4,324.3 -275.8,331.7 -198.1,331.7 		"/>
		<polygon clip-path="url(#SVGID_2_)" fill="#FFFFFF" points="-198.1,334.1 -268.4,334.1 -275.8,341.6 -198.1,341.6 		"/>
		<polygon clip-path="url(#SVGID_2_)" fill="#FFFFFF" points="-198.1,304.5 -268.4,304.5 -275.8,311.9 -198.1,311.9 		"/>
		<polygon clip-path="url(#SVGID_2_)" fill="#FFFFFF" points="-198.1,314.4 -268.4,314.4 -275.8,321.8 -198.1,321.8 		"/>
		<path clip-path="url(#SVGID_2_)" fill="#FFFFFF" d="M-282.2,230.5v8.9l107.7,0c2.2,0,4.1-1.7,4.1-3.9v-1.1c0-2.1-1.8-3.9-4.1-3.9
			L-282.2,230.5z"/>
		<path clip-path="url(#SVGID_2_)" fill="#FFFFFF" d="M-198.1,302.1v-7.4h-70.3l-5.8,5.8c0.1,0.5,0.2,1.1,0.3,1.6H-198.1z"/>
		<polygon clip-path="url(#SVGID_2_)" fill="#FFFFFF" points="-198.1,245.3 -268.4,245.3 -275.8,252.7 -198.1,252.7 		"/>
		<polygon clip-path="url(#SVGID_2_)" fill="#FFFFFF" points="-198.1,262.6 -198.1,255.2 -268.4,255.2 -275.8,262.6 		"/>
		<polygon clip-path="url(#SVGID_2_)" fill="#FFFFFF" points="-198.1,272.5 -198.1,265 -268.4,265 -275.8,272.5 		"/>
		<polygon clip-path="url(#SVGID_2_)" fill="#FFFFFF" points="-198.1,282.3 -198.1,274.9 -268.4,274.9 -275.8,282.3 		"/>
		<path clip-path="url(#SVGID_2_)" fill="#FFFFFF" d="M-190.7,353.9c0,3.4-2.1,6.2-4.6,6.2c-2.6,0-4.6-2.8-4.6-6.2h-68.5l-7.4,7.4
			H-174l-7.4-7.4H-190.7z"/>
		<polygon clip-path="url(#SVGID_2_)" fill="#FFFFFF" points="-198.1,292.2 -198.1,284.8 -268.4,284.8 -275.8,292.2 		"/>
		<polygon clip-path="url(#SVGID_2_)" fill="#FFFFFF" points="-268.4,363.8 -275.8,371.2 -174,371.2 -181.4,363.8 		"/>
		<polygon clip-path="url(#SVGID_2_)" fill="#FFFFFF" points="-192.5,321.8 -174,321.8 -181.4,314.4 -192.5,314.4 		"/>
		<polygon clip-path="url(#SVGID_2_)" fill="#FFFFFF" points="-192.5,331.7 -174,331.7 -181.4,324.3 -192.5,324.3 		"/>
		<polygon clip-path="url(#SVGID_2_)" fill="#FFFFFF" points="-192.5,311.9 -174,311.9 -181.4,304.5 -192.5,304.5 		"/>
		<path clip-path="url(#SVGID_2_)" fill="#FFFFFF" d="M-198.1,353.9c0,2,1.2,3.7,2.8,3.7c1.5,0,2.8-1.7,2.8-3.7c0-1-0.3-1.8-0.7-2.5
			c-0.3-0.4-0.7-0.8-1.1-1c-0.3-0.1-0.6-0.2-0.9-0.2c-0.3,0-0.6,0.1-0.9,0.2c-0.4,0.2-0.8,0.6-1.1,1
			C-197.8,352.1-198.1,352.9-198.1,353.9z"/>
		<polygon clip-path="url(#SVGID_2_)" fill="#FFFFFF" points="-192.5,302.1 -174,302.1 -181.4,294.7 -192.5,294.7 		"/>
		<path clip-path="url(#SVGID_2_)" fill="#FFFFFF" d="M-192.5,349c0.6,0.6,1.1,1.5,1.4,2.4h17.1l-7.4-7.4h-11.1V349z"/>
		<polygon clip-path="url(#SVGID_2_)" fill="#FFFFFF" points="-192.5,341.6 -174,341.6 -181.4,334.1 -192.5,334.1 		"/>
		<polygon clip-path="url(#SVGID_2_)" fill="#FFFFFF" points="-192.5,262.6 -174,262.6 -181.4,255.2 -192.5,255.2 		"/>
		<polygon clip-path="url(#SVGID_2_)" fill="#FFFFFF" points="-192.5,292.2 -174,292.2 -181.4,284.8 -192.5,284.8 		"/>
		<polygon clip-path="url(#SVGID_2_)" fill="#FFFFFF" points="-181.4,245.3 -192.5,245.3 -192.5,252.7 -174,252.7 		"/>
		<path clip-path="url(#SVGID_2_)" fill="#FFFFFF" d="M-194.4,347.8V245.3h-1.9v102.5c0.3-0.1,0.6-0.1,0.9-0.1
			C-195,347.7-194.7,347.8-194.4,347.8z"/>
		<polygon clip-path="url(#SVGID_2_)" fill="#FFFFFF" points="-192.5,272.5 -174,272.5 -181.4,265 -192.5,265 		"/>
		<polygon clip-path="url(#SVGID_2_)" fill="#FFFFFF" points="-192.5,282.3 -174,282.3 -181.4,274.9 -192.5,274.9 		"/>
	</g>
</g>
<path fill="#FFFFFF" d="M-357,239.4v-8.9l-8.3,0c-2.1,0-3.9,1.7-3.9,3.9v1.1c0,2.1,1.7,3.9,3.9,3.9L-357,239.4z"/>
<path fill="#FFFFFF" d="M-350.5,249.1L-350.5,249.1c-1.7,0-3.1-1.4-3.1-3.1v-22.1c0-1.7,1.4-3.1,3.1-3.1l0,0c1.7,0,3.1,1.4,3.1,3.1
	V246C-347.4,247.7-348.8,249.1-350.5,249.1z"/>
<path fill="#FFFFFF" d="M-341.1,249.1L-341.1,249.1c-1.7,0-3.1-1.4-3.1-3.1v-22.1c0-1.7,1.4-3.1,3.1-3.1l0,0c1.7,0,3.1,1.4,3.1,3.1
	V246C-338,247.7-339.4,249.1-341.1,249.1z"/>
<path fill="#FFFFFF" d="M-331.7,249.1L-331.7,249.1c-1.7,0-3.1-1.4-3.1-3.1v-22.1c0-1.7,1.4-3.1,3.1-3.1l0,0c1.7,0,3.1,1.4,3.1,3.1
	V246C-328.6,247.7-330,249.1-331.7,249.1z"/>
<path fill="#FFFFFF" d="M-322.2,249.1L-322.2,249.1c-1.7,0-3.1-1.4-3.1-3.1v-22.1c0-1.7,1.4-3.1,3.1-3.1l0,0c1.7,0,3.1,1.4,3.1,3.1
	V246C-319.1,247.7-320.5,249.1-322.2,249.1z"/>
<path fill="#FFFFFF" d="M-312.7,249.1L-312.7,249.1c-1.7,0-3.1-1.4-3.1-3.1v-22.1c0-1.7,1.4-3.1,3.1-3.1l0,0c1.7,0,3.1,1.4,3.1,3.1
	V246C-309.6,247.7-311,249.1-312.7,249.1z"/>
<path fill="#FFFFFF" d="M-303.3,249.1L-303.3,249.1c-1.7,0-3.1-1.4-3.1-3.1v-22.1c0-1.7,1.4-3.1,3.1-3.1l0,0c1.7,0,3.1,1.4,3.1,3.1
	V246C-300.2,247.7-301.5,249.1-303.3,249.1z"/>
<path fill="#FFFFFF" d="M-293.8,249.1L-293.8,249.1c-1.7,0-3.1-1.4-3.1-3.1v-22.1c0-1.7,1.4-3.1,3.1-3.1l0,0c1.7,0,3.1,1.4,3.1,3.1
	V246C-290.7,247.7-292,249.1-293.8,249.1z"/>
<path fill="#FFFFFF" d="M-284.5,249.1L-284.5,249.1c-1.7,0-3.1-1.4-3.1-3.1v-22.1c0-1.7,1.4-3.1,3.1-3.1l0,0c1.7,0,3.1,1.4,3.1,3.1
	V246C-281.4,247.7-282.8,249.1-284.5,249.1z"/>
<path fill="#FFFFFF" d="M-353.7,251.6"/>
<path fill="#FFFFFF" d="M-345.8,250.5c0.2,0.2,2,2.4,4.9,2.2c2.6-0.2,4-2,4.3-2.3c0.2,0.3,1.9,2.3,4.8,2.3c3,0,4.6-2.2,4.8-2.4
	c0.2,0.2,1.7,2.3,4.5,2.4c3.1,0.1,4.8-2.4,4.9-2.6c0.2,0.2,1.9,2.5,4.9,2.4c3,0,4.6-2.2,4.8-2.4c0.2,0.2,2,2.5,5,2.4
	c2.8-0.1,4.4-2.1,4.6-2.4c0.1,0.1,1.9,2.7,4.9,2.4c2.6-0.2,4-2.2,4.1-2.4c0.3,0.3,1.3,1.4,3,1.8c1.5,0.3,2.8-0.2,3.2-0.4
	c-0.6,6.1-3.1,22.2-15.5,37.3c-12.1,14.6-26.7,20.2-32.6,22c-0.3-0.3-0.7-0.8-1.3-1.2c-1.8-1.2-3.8-1.1-5.3-1.1c-3,0.1-6,0-9,0.2
	c-1.6,0.1-3.9,0.1-6.8,0.1c0-19.1,0-38.2,0-57.3c0.4,0.3,1.9,1.3,3.9,1.1C-347.4,252.4-346.1,250.8-345.8,250.5z"/>
<path fill="#FFFFFF" d="M-334.8,315.4h-18.6c-0.9,0-1.7-0.7-1.7-1.7l0,0c0-0.9,0.7-1.7,1.7-1.7h18.6c0.9,0,1.7,0.7,1.7,1.7l0,0
	C-333.1,314.6-333.8,315.4-334.8,315.4z"/>
<path fill="#FFFFFF" d="M-341.1,321.5h-12.3c-0.9,0-1.7-0.7-1.7-1.7l0,0c0-0.9,0.7-1.7,1.7-1.7h12.3c0.9,0,1.7,0.7,1.7,1.7l0,0
	C-339.4,320.7-340.2,321.5-341.1,321.5z"/>
<path fill="#FFFFFF" d="M-353.7,324.6c0.7,0,1.7,0.1,3,0.1c2.3,0,2.2-0.1,4.1,0c1.2,0,3.6,0.1,4.8,0c0.4,0,0.2,0,1.3-0.1
	c0.4,0,0.6-0.1,0.9-0.2c0.4-0.1,0.6-0.3,0.8-0.5c2.6,6.7,5.2,14.8,7.1,24.1c2.3,11.4,3,21.5,3,29.8c-8.3,0-16.6,0-24.9,0V324.6z"/>
</svg>
